# xmcd
# Track frame offsets:
# 150
# 16702
# 36615
# 49127
# 60010
# 77557
# 91302
# 105762
# 127130
# 145390
# 161840
# 179390
# 200535
# 218255
# 237057
# 254630
# 268317
#
# Disc length: 3827 seconds
# Revision: 0
# Processed by: cddbd v1.5.2PL0 Copyright (c) Steve Scherf et al.
# Submitted via: VisiTrax 2.10.3.257 - For more info visit www.synapsa.com
#
DISCID=e70ef111
DTITLE=Various Artist - The Winners 2006 CMAA disk 2
DYEAR=2006
DGENRE=
TTITLE0=Storer, Sara - Firstly
TTITLE1=Casser-Daly, Troy and Jimmy Barnes featuring Bella - Bird on a Wire
TTITLE2=Kelly, Paul and the Stormwater Boys - Song of the old Rake
TTITLE3=Te Nahu, Camille &Stuie French - Without You
TTITLE4=Blundell, James - Postcards from Saigon
TTITLE5=Broadie, Karl - Black Crow Callin
TTITLE6=Kernigam, Tania - Yee Ha
TTITLE7=Stephan, John and John Williamson - Wrinkles
TTITLE8=Costa, Paul - House of Mirrors
TTITLE9=Killeen, Sweeney - Running
TTITLE10=Terry and Jenny - The Soldier with his Banjo
TTITLE11=Chambers, Kasey - Pony
TTITLE12=Brand, Adam - This time of year
TTITLE13=Rodger, Graham - Where the Cooper flows
TTITLE14=Collins, Travis and Samantha McClymont - A fool like me
TTITLE15=Flood, The - Hello Blue Sky
TTITLE16=Letton, Brian - Two Chords
EXTD=
EXTT0=
EXTT1=
EXTT2=
EXTT3=
EXTT4=
EXTT5=
EXTT6=
EXTT7=
EXTT8=
EXTT9=
EXTT10=
EXTT11=
EXTT12=
EXTT13=
EXTT14=
EXTT15=
EXTT16=
PLAYORDER=
